<?xml version="1.0" encoding="utf-8"?>
<!-- Generator: Adobe Illustrator 22.1.0, SVG Export Plug-In . SVG Version: 6.00 Build 0)  -->
<svg version="1.1" id="Layer_1" xmlns="http://www.w3.org/2000/svg" xmlns:xlink="http://www.w3.org/1999/xlink" x="0px" y="0px"
	 width="512px" height="512px" viewBox="0 0 512 512" style="enable-background:new 0 0 512 512;" xml:space="preserve">
<style type="text/css">
	.st0{fill:#241F20;}
</style>
<g id="Layer_5">
	<path class="st0" d="M495.7,320.2l0.2,0.3l-0.1-32.2h-27.4V321h-5v-32.7h-55V301h-5v-12.7h-55V321h-5v-32.7h-55V301h-5v-12.7h-55
		V321h-5v-32.7h-55V301h-5v-12.7h-55V321h-5v-32.7h-55V301h-5v-12.7H16.2L16,323.7c0,0.1,0,0.2,0,0.2c0,0.1,0,0.2,0,0.2v1.9l0.1-0.1
		c1,92.6,75.2,167.4,167.4,169.7v0.2H324c95,0,172-77,172-172C496,322.7,495.7,321.5,495.7,320.2z"/>
	<path class="st0" d="M468.5,251v32.3h27.4l-0.5-242.5c0-13.1-10.7-23.7-23.8-23.7c-7.3,0-13.5,3.4-17.9,8.5l-0.2-0.1l-84.3,103.6
		v0.4c-30.5-26.1-69.9-42-113.2-42c-42.9,0-81.9,15.7-112.3,41.3l0.2-0.5L59.6,25.9L59.4,26c-4.4-5.3-10.7-8.9-18.1-8.9
		c-13,0-23.6,10.6-23.6,23.6l-1.5,242.7h27.3V271h5v12.3h55V251h5v32.3h55V271h5v12.3h55V251h5v32.3h55V271h5v12.3h55V251h5v32.3h55
		V271h5v12.3h55V251H468.5z"/>
</g>
</svg>
